<svg xmlns="http://www.w3.org/2000/svg" version="1.1" xmlns:xlink="http://www.w3.org/1999/xlink" width="24" height="24" x="0" y="0" viewBox="0 0 24 24" style="enable-background:new 0 0 512 512" xml:space="preserve" fill-rule="evenodd" class=""><g><path d="M17.75 21v-8A1.75 1.75 0 0 0 16 11.25H6A1.75 1.75 0 0 0 4.25 13v8c0 .967.784 1.75 1.75 1.75h10A1.75 1.75 0 0 0 17.75 21zm-1.5-8v8a.25.25 0 0 1-.25.25H6a.25.25 0 0 1-.25-.25v-8a.25.25 0 0 1 .25-.25h10a.25.25 0 0 1 .25.25z" fill="#ff8201" opacity="1" data-original="#000000" class=""></path><path d="M19.75 19v-3.5A1.75 1.75 0 0 0 18 13.75h-1a.75.75 0 0 0-.75.75V20c0 .414.336.75.75.75h1A1.75 1.75 0 0 0 19.75 19zm-2 .25v-4H18a.25.25 0 0 1 .25.25V19a.25.25 0 0 1-.25.25zM4 20.75h1l.039-.001A.75.75 0 0 0 5.75 20v-5.5a.75.75 0 0 0-.75-.75H4a1.75 1.75 0 0 0-1.75 1.75V19c0 .967.784 1.75 1.75 1.75zm.25-1.5H4a.25.25 0 0 1-.25-.25v-3.5a.25.25 0 0 1 .25-.25h.25z" fill="#ff8201" opacity="1" data-original="#000000" class=""></path><circle cx="8.5" cy="15" r="1" fill="#ff8201" opacity="1" data-original="#000000" class=""></circle><circle cx="13.5" cy="15" r="1" fill="#ff8201" opacity="1" data-original="#000000" class=""></circle><path d="M3.75 16V9a.75.75 0 0 0-1.5 0v7a.75.75 0 0 0 1.5 0z" fill="#ff8201" opacity="1" data-original="#000000" class=""></path><path d="M3 6.25a1.75 1.75 0 1 0 .001 3.501A1.75 1.75 0 0 0 3 6.25zm0 1.5a.25.25 0 1 1 0 .5.25.25 0 0 1 0-.5zM22.75 3c0-.464-.184-.909-.513-1.237A1.746 1.746 0 0 0 21 1.25h-7c-.464 0-.909.184-1.237.513A1.746 1.746 0 0 0 12.25 3v3.667c0 .966.784 1.75 1.75 1.75h.689l1.447 1.447a.75.75 0 0 0 1.061 0l1.447-1.447H21a1.75 1.75 0 0 0 1.75-1.75zm-1.5 0v3.667a.25.25 0 0 1-.25.25h-2.667a.752.752 0 0 0-.53.219l-1.136 1.137-1.137-1.137a.75.75 0 0 0-.53-.219h-1a.25.25 0 0 1-.25-.25V3a.25.25 0 0 1 .25-.25h7a.25.25 0 0 1 .25.25zM7.971 18.495a4.28 4.28 0 0 0 6.058 0 .749.749 0 1 0-1.06-1.06 2.787 2.787 0 0 1-3.938 0 .749.749 0 1 0-1.06 1.06z" fill="#ff8201" opacity="1" data-original="#000000" class=""></path><path d="M3 6.25a1.75 1.75 0 1 0 .001 3.501A1.75 1.75 0 0 0 3 6.25zm0 1.5a.25.25 0 1 1 0 .5.25.25 0 0 1 0-.5zM22.75 3c0-.464-.184-.909-.513-1.237A1.746 1.746 0 0 0 21 1.25h-7c-.464 0-.909.184-1.237.513A1.746 1.746 0 0 0 12.25 3v3.667c0 .966.784 1.75 1.75 1.75h.689l1.447 1.447a.75.75 0 0 0 1.061 0l1.447-1.447H21a1.75 1.75 0 0 0 1.75-1.75zm-1.5 0v3.667a.25.25 0 0 1-.25.25h-2.667a.752.752 0 0 0-.53.219l-1.136 1.137-1.137-1.137a.75.75 0 0 0-.53-.219h-1a.25.25 0 0 1-.25-.25V3a.25.25 0 0 1 .25-.25h7a.25.25 0 0 1 .25.25zM7.971 18.495a4.28 4.28 0 0 0 6.058 0 .749.749 0 1 0-1.06-1.06 2.787 2.787 0 0 1-3.938 0 .749.749 0 1 0-1.06 1.06z" fill="#ff8201" opacity="1" data-original="#000000" class=""></path></g></svg>